Coordinates
version=1
nRows=17
nColumns=40
inDegrees=yes

Units are S.I. units (second, meters, Newtons, ...)
Angles are in degrees.

endheader
time	pelvis_tilt	pelvis_list	pelvis_rotation	pelvis_tx	pelvis_ty	pelvis_tz	hip_flexion_r	hip_adduction_r	hip_rotation_r	knee_angle_r	knee_angle_r_beta	ankle_angle_r	subtalar_angle_r	mtp_angle_r	hip_flexion_l	hip_adduction_l	hip_rotation_l	knee_angle_l	knee_angle_l_beta	ankle_angle_l	subtalar_angle_l	mtp_angle_l	lumbar_extension	lumbar_bending	lumbar_rotation	arm_flex_r	arm_add_r	arm_rot_r	elbow_flex_r	pro_sup_r	wrist_flex_r	wrist_dev_r	arm_flex_l	arm_add_l	arm_rot_l	elbow_flex_l	pro_sup_l	wrist_flex_l	wrist_dev_l
     36.87000000	     -1.98147119	     -5.07043347	      2.07881401	      1.07118999	      0.93036943	      0.47592711	     10.24363978	      3.15016888	    -15.65673281	     18.52000324	     18.52000324	     12.11677272	      0.95338516	     -3.21221807	     30.56809031	    -16.10696862	      1.14922623	     60.28195592	     60.28195592	      6.38002751	    -17.62035896	      9.39005619	    -10.26234938	      4.88245145	      3.46277813	     11.72330075	    -17.93271275	      0.63764549	     55.51811055	     44.98671025	      0.00000000	      0.00000000	      7.33291315	    -10.03254725	    -13.65618901	     45.78090630	     44.81643230	      0.00000000	      0.00000000
     36.88335714	     -2.09828566	     -4.91313215	      2.40205932	      1.06975908	      0.93038412	      0.47572553	      9.91728075	      3.02201837	    -15.77818855	     18.25758793	     18.25758793	     12.31238303	      0.87926070	     -3.29574776	     31.37158485	    -15.86655707	      0.94916031	     57.74936403	     57.74936403	      6.68180731	    -18.00569831	      9.63574432	    -10.29187959	      4.84616862	      3.20464401	     13.39890092	    -17.91006984	      0.53329607	     56.77469954	     44.96134388	      0.00000000	      0.00000000	      6.34982423	     -9.85572760	    -13.61574279	     44.30970311	     44.81809635	      0.00000000	      0.00000000
     36.89671429	     -2.22834198	     -4.77236019	      2.70910621	      1.06830310	      0.93039239	      0.47551677	      9.60277395	      2.91400164	    -15.87822875	     17.97843841	     17.97843841	     12.48820902	      0.74966668	     -3.39485563	     31.99302455	    -15.64297111	      0.64258402	     54.89715704	     54.89715704	      6.90597947	    -18.22880414	      9.97176448	    -10.33302186	      4.83365833	      3.07402805	     14.98599398	    -18.00606218	      0.51164642	     58.11568974	     44.92871355	      0.00000000	      0.00000000	      5.51706924	     -9.61962224	    -13.58520114	     42.67445416	     44.81899995	      0.00000000	      0.00000000
     36.91007143	     -2.33442727	     -4.65931358	      3.02311068	      1.06690345	      0.93036759	      0.47522901	      9.25153995	      2.84126285	    -15.97796112	     17.67406774	     17.67406774	     12.63597658	      0.61117708	     -3.52091635	     32.43926424	    -15.37707147	      0.35737310	     51.83541856	     51.83541856	      7.13964251	    -18.34619480	     10.39940684	    -10.37634597	      4.85395514	      2.93645861	     16.49943700	    -18.10120026	      0.56219428	     59.59552202	     44.88868249	      0.00000000	      0.00000000	      4.82334039	     -9.39769851	    -13.56376988	     40.78110364	     44.82297081	      0.00000000	      0.00000000
     36.92342857	     -2.45867823	     -4.58738639	      3.32652360	      1.06553179	      0.93026414	      0.47484230	      8.91436130	      2.80539681	    -16.08456412	     17.35195106	     17.35195106	     12.77300969	      0.48332784	     -3.68503616	     32.77929525	    -15.08783493	      0.10817862	     48.60642265	     48.60642265	      7.33056333	    -18.35353602	     10.89400088	    -10.42389650	      4.92644372	      2.88450068	     17.89695200	    -18.25160780	      0.63737816	     61.10634433	     44.84699280	      0.00000000	      0.00000000	      4.24245249	     -9.14445910	    -13.53655483	     38.78581736	     44.82911402	      0.00000000	      0.00000000
     36.93678571	     -2.64452203	     -4.61013095	      3.62335263	      1.06413746	      0.92996662	      0.47430285	      8.63630714	      2.86417043	    -16.18592108	     16.97594051	     16.97594051	     12.75248882	      0.38874221	     -4.32274132	     33.10576343	    -14.79029991	      0.00336705	     45.27826506	     45.27826506	      7.49034603	    -18.24950628	     11.21848893	    -10.33909267	      5.13726802	      3.38116751	     18.55420985	    -19.13606177	      1.02397156	     63.61783775	     44.77929889	      0.00000000	      0.00000000	      4.92369188	     -8.59707069	    -13.63987157	     34.46185980	     44.92714329	      0.00000000	      0.00000000
     36.95014286	     -2.79680933	     -4.56395477	      3.87703186	      1.06281273	      0.92977707	      0.47368077	      8.30078579	      2.85029136	    -16.29300414	     16.55946067	     16.55946067	     12.70696169	      0.25556594	     -4.73977225	     33.20371793	    -14.40675838	     -0.19969926	     41.75822073	     41.75822073	      7.44609172	    -18.05033283	     11.13784490	    -10.37114852	      5.21854664	      3.71210109	     19.53034853	    -19.32218680	      0.38956213	     65.61560715	     44.78319398	      0.00000000	      0.00000000	      4.64519217	     -8.27437172	    -13.75579238	     32.30815879	     45.04058929	      0.00000000	      0.00000000
     36.96350000	     -3.08480491	     -4.62371825	      4.10104576	      1.06141676	      0.92927870	      0.47295103	      8.20430833	      2.90514436	    -16.40579302	     16.31997614	     16.31997614	     12.86121322	      0.17711555	     -4.79071906	     33.47271628	    -14.07829903	     -0.29306036	     38.35929837	     38.35929837	      7.61765549	    -17.42789856	     11.55174330	    -10.21906174	      5.38261232	      3.89338771	     20.84018908	    -19.53239178	      0.14847458	     66.39001080	     44.77458053	      0.00000000	      0.00000000	      3.76155477	     -7.94378399	    -13.70024474	     31.75231478	     45.02533485	      0.00000000	      0.00000000
     36.97685714	     -3.20499297	     -4.49880993	      4.31700136	      1.06027533	      0.92922054	      0.47202288	      7.75152007	      2.81038877	    -16.42298875	     15.79546985	     15.79546985	     12.96387551	      0.22714757	     -4.82212324	     33.29274866	    -13.48947921	     -0.37162287	     34.76708835	     34.76708835	      7.72848422	    -16.78107504	     11.80868348	    -10.27048774	      5.32811300	      3.61138988	     22.17384068	    -19.14904544	      0.02998172	     67.76482007	     44.74356311	      0.00000000	      0.00000000	      2.80149519	     -7.91173575	    -13.58613307	     30.74357341	     45.00807818	      0.00000000	      0.00000000
     36.99021429	     -3.33159195	     -4.61444798	      4.53896504	      1.05917129	      0.92892349	      0.47103492	      7.28733723	      2.95458732	    -16.66429356	     15.19727145	     15.19727145	     12.84758061	      0.43688001	     -5.49768289	     33.13424025	    -13.16773253	     -0.40219226	     31.25331866	     31.25331866	      7.07653721	    -15.93165931	     10.06776503	    -10.32171395	      5.58657455	      3.84833363	     22.85476650	    -19.39304194	     -0.12961595	     70.27287482	     44.71587182	      0.00000000	      0.00000000	      2.58498246	     -7.75033981	    -12.79355963	     28.43802365	     44.98801487	      0.00000000	      0.00000000
     37.00357143	     -3.60588776	     -4.65437582	      4.70920350	      1.05805918	      0.92848480	      0.46992215	      7.06448090	      2.99218841	    -16.74054748	     14.78163138	     14.78163138	     12.94943000	      0.48613465	     -5.52402607	     33.15698160	    -12.75479981	     -0.45943595	     28.12250375	     28.12250375	      7.23745560	    -14.53767484	     10.37451294	    -10.16622026	      5.68042984	      3.88105729	     23.98739931	    -19.24854807	     -0.33706552	     71.18373545	     44.70248377	      0.00000000	      0.00000000	      1.67758591	     -7.54403821	    -12.69335495	     27.94104602	     44.96760753	      0.00000000	      0.00000000
     37.01692857	     -3.69271557	     -4.71365140	      4.86888201	      1.05721320	      0.92830445	      0.46870834	      6.49667172	      3.08956623	    -16.88182425	     14.13102035	     14.13102035	     13.01206842	      0.76930726	     -5.60293823	     32.95642191	    -12.42329942	     -0.66147047	     25.30601131	     25.30601131	      7.41652641	    -12.82704555	     10.49265853	    -10.24411325	      5.81003765	      3.68501849	     25.10712504	    -18.82321192	     -0.50663246	     72.57054842	     44.67551955	      0.00000000	      0.00000000	      0.65770739	     -7.45046049	    -12.48050095	     27.28494839	     44.93502356	      0.00000000	      0.00000000
     37.03028571	     -3.87223243	     -4.80534131	      5.00335480	      1.05644803	      0.92795566	      0.46737983	      6.04493772	      3.19715973	    -17.05956099	     13.51232919	     13.51232919	     13.06932776	      1.08098943	     -5.72431808	     32.89128194	    -12.12931501	     -0.92880601	     22.91618786	     22.91618786	      7.50959808	    -11.10994964	     10.62875621	    -10.17691901	      5.93912315	      3.66313185	     26.02373386	    -18.55709039	     -0.64388119	     73.80088338	     44.65131871	      0.00000000	      0.00000000	     -0.26634670	     -7.29175035	    -12.25689894	     26.77960650	     44.89889486	      0.00000000	      0.00000000
     37.04364286	     -4.14007731	     -4.97372289	      5.12392812	      1.05570418	      0.92732869	      0.46591871	      5.77415202	      3.34776512	    -17.20365464	     13.06020064	     13.06020064	     13.16148662	      1.30827150	     -5.81253844	     33.03635185	    -11.87074473	     -1.04855359	     21.11257752	     21.11257752	      7.52482127	     -9.76340112	     10.80004722	     -9.97475695	      6.17310266	      3.81522944	     26.90017589	    -18.46199413	     -0.78296182	     74.67480843	     44.63502628	      0.00000000	      0.00000000	     -1.10373276	     -7.06228834	    -12.13009950	     26.42022849	     44.87129748	      0.00000000	      0.00000000
     37.05700000	     -4.09112689	     -5.03321264	      5.23578505	      1.05554829	      0.92728250	      0.46439685	      4.82487916	      3.48015551	    -17.50830994	     12.04638845	     12.04638845	     13.11184227	      2.07464312	     -6.06787703	     32.77260874	    -11.66508939	     -1.73946109	     19.78380944	     19.78380944	      7.64555286	     -7.93941771	     10.71734634	    -10.12466146	      6.24560387	      3.64657612	     27.50769892	    -17.90042670	     -0.89858490	     76.51777466	     44.59539410	      0.00000000	      0.00000000	     -2.11925838	     -7.01132175	    -11.71149783	     26.06343588	     44.80982092	      0.00000000	      0.00000000
     37.07035714	     -4.21923588	     -5.15109839	      5.30811980	      1.05540615	      0.92681188	      0.46275079	      4.21732146	      3.61203174	    -17.75721983	     11.31834189	     11.31834189	     13.08625303	      2.65447187	     -6.42224760	     32.75869769	    -11.45736410	     -2.20309443	     19.00052734	     19.00052734	      7.59336075	     -6.81516005	     10.57687002	    -10.04049586	      6.36494804	      3.81975969	     27.90486249	    -17.69301029	     -1.11759667	     78.00008081	     44.57580652	      0.00000000	      0.00000000	     -3.00235862	     -6.89616319	    -11.19058643	     25.94516365	     44.73905496	      0.00000000	      0.00000000
     37.08371429	     -4.33869461	     -5.22059624	      5.35258999	      1.05544193	      0.92630102	      0.46098547	      3.63234832	      3.68546989	    -17.86704748	     10.69163893	     10.69163893	     13.18746389	      3.09091984	     -6.56054316	     32.68247923	    -11.18535988	     -2.55887741	     18.61979314	     18.61979314	      7.35132609	     -6.30448425	     10.48900632	     -9.93171894	      6.42137354	      3.86677007	     28.31562889	    -17.33248117	     -1.23233620	     79.03120845	     44.55853980	      0.00000000	      0.00000000	     -3.88518131	     -6.78631506	    -10.92398856	     25.71342536	     44.69733887	      0.00000000	      0.00000000
